<svg width="2990" height="894" viewBox="0 0 2990 894" fill="none" xmlns="http://www.w3.org/2000/svg">
<path d="M92.1995 699.131C92.1995 729.858 77.0623 744.992 46.3291 744.992H0V393.698C5.04575 284.09 61.9251 229.974 172.473 229.974C286.231 229.974 343.569 291.886 343.569 415.252C343.569 540.452 294.947 604.658 196.784 608.327C150.914 608.327 116.052 589.524 92.6583 551.459V699.131H92.1995ZM170.638 525.318C220.637 525.318 246.324 490.005 248.618 418.921C248.618 344.626 222.013 307.938 169.262 307.938C116.511 307.938 91.2821 344.626 92.1995 418.921C94.9518 490.005 120.639 525.318 170.638 525.318Z" fill="black"/>
<path d="M385.771 411.583C388.523 292.804 451.824 233.643 574.757 233.643H588.059V329.492H556.867C505.492 329.492 479.805 356.55 479.805 410.208V600.989H386.229V411.583H385.771Z" fill="black"/>
<path d="M962.361 418.921C962.361 545.498 905.941 609.244 794.934 609.244C683.928 609.244 628.425 545.498 628.425 418.921C628.425 290.97 683.928 228.14 794.934 228.14C905.941 228.14 962.361 291.428 962.361 418.921ZM722 418.921C722.918 490.465 747.229 526.695 794.017 526.695C841.264 526.695 864.657 489.089 865.575 416.17C865.575 344.627 842.181 309.314 794.934 309.314C746.312 309.314 722 346.003 722 418.921Z" fill="black"/>
<path d="M1099.51 285.007C1122.91 246.943 1157.77 228.14 1203.64 228.14C1301.8 231.809 1350.43 295.555 1350.43 420.297C1350.43 542.746 1293.55 604.199 1179.33 606.492C1064.65 607.41 1006.86 552.376 1006.86 441.852V128.622H1053.19C1083.92 128.622 1099.06 144.673 1099.06 174.941V285.007H1099.51ZM1099.51 416.17C1098.6 490.464 1123.83 528.07 1176.58 528.07C1229.33 528.07 1255.93 490.464 1255.93 416.17C1253.64 345.544 1227.95 310.689 1177.95 310.689C1127.95 310.689 1102.27 345.544 1099.51 416.17Z" fill="black"/>
<path d="M1555.47 609.244C1444.46 605.575 1388.96 541.37 1388.96 416.17C1388.96 290.97 1445.38 228.599 1556.84 228.14C1673.35 228.14 1728.4 299.683 1721.52 443.228H1483.91C1487.58 499.637 1511.89 528.071 1556.84 528.071C1578.4 528.071 1598.58 518.898 1616.47 501.471C1624.73 492.299 1635.28 488.171 1647.67 488.171H1715.55C1695.83 566.135 1645.83 609.244 1555.47 609.244ZM1485.28 377.188H1623.35C1617.85 328.576 1594.91 303.352 1555.47 303.352C1516.02 303.352 1492.62 328.576 1485.28 377.188Z" fill="black"/>
<path d="M1860.05 329.493H1767.85C1778.85 261.619 1827.02 228.14 1911.42 228.14C2012.79 228.14 2064.17 261.619 2066.46 329.493V454.693C2066.46 556.046 2005.45 601.448 1905.92 608.327C1817.84 615.206 1756.38 574.39 1756.38 493.216C1758.67 405.163 1822.43 381.316 1915.55 372.602C1955 367.557 1975.18 356.092 1975.18 335.913C1972.89 315.276 1953.62 304.728 1915.55 304.728C1882.98 303.811 1864.63 312.066 1860.05 329.493ZM1976.56 450.107V416.17C1955 425.342 1930.23 432.68 1902.71 438.183C1866.01 445.062 1847.2 462.489 1847.2 489.547C1849.5 518.898 1864.63 532.657 1893.53 532.657C1945.36 533.115 1976.56 502.388 1976.56 450.107Z" fill="black"/>
<path d="M2419.66 454.693C2419.66 517.981 2403.61 559.714 2371.04 579.893C2338.47 598.696 2302.24 608.327 2262.79 608.327C2224.72 608.327 2190.31 597.779 2158.66 577.141C2126.55 556.963 2110.96 516.605 2110.96 454.693V233.643H2203.16V473.037C2203.16 513.853 2223.8 534.032 2265.54 534.032C2307.28 534.032 2327.92 513.853 2327.92 473.037V279.045C2327.01 248.319 2341.69 233.185 2372.42 233.185H2419.66V454.693Z" fill="black"/>
<path d="M2561.86 299.683H2552.23V503.305C2552.23 518.439 2561.4 526.694 2579.29 526.694H2607.73V596.862C2577.92 599.613 2545.35 599.613 2510.49 595.944C2475.63 592.275 2459.11 570.721 2459.57 529.905V128.622H2507.28C2531.59 128.622 2551.77 150.635 2551.77 174.941V233.184H2607.27V253.363C2607.73 279.963 2587.55 299.683 2561.86 299.683Z" fill="black"/>
<path d="M2710.48 666.112C2761.4 666.112 2779.29 640.888 2764.61 592.276L2639.38 233.185H2744.43L2817.36 488.171L2881.12 265.746C2886.63 244.191 2901.3 233.185 2924.7 233.185H2989.38L2843.97 662.901C2821.95 723.438 2799.47 744.075 2722.87 744.075C2699.47 744.075 2686.63 743.158 2683.88 741.323V665.653H2710.48V666.112Z" fill="black"/>
<path d="M860.07 85.0539C860.07 85.0539 1006.86 -14.0057 1006.86 137.794C1006.86 289.594 1006.86 497.802 1006.86 497.802C1006.86 497.802 1052.73 671.156 1257.77 592.276C1257.77 592.276 1101.35 621.168 1100.43 398.742L1099.06 181.82C1099.51 181.82 1145.84 -152.047 860.07 85.0539Z" fill="#F7941E"/>
<path d="M2280.68 774.802C2280.22 790.395 2278.38 799.108 2266 805.987C2252.7 812.867 2232.05 815.16 2216.92 815.16C2207.74 815.16 2156.37 815.16 2156.37 767.923C2156.37 728.024 2195.36 716.559 2250.86 700.507V682.621C2250.86 669.322 2250.86 645.474 2224.71 645.474C2204.53 645.474 2198.57 661.067 2195.82 667.946C2193.52 674.367 2190.77 683.08 2180.22 683.08C2175.18 683.08 2166.46 679.411 2166.46 668.405C2166.46 647.767 2192.61 627.13 2229.76 627.13C2280.68 627.13 2281.14 664.277 2281.59 682.621V774.802H2280.68ZM2250.86 717.017C2213.25 728.941 2188.02 737.196 2188.02 763.795C2188.02 766.547 2188.02 796.815 2223.34 796.815C2250.4 796.815 2250.86 780.764 2250.86 771.592V717.017Z" fill="#F7941E"/>
<path d="M2319.21 677.118C2319.67 661.525 2319.67 656.022 2323.34 650.06C2330.68 639.054 2357.74 628.047 2387.56 628.047C2451.77 628.047 2468.29 676.659 2468.29 713.807C2468.29 757.375 2443.98 815.618 2387.56 815.618C2367.37 815.618 2356.82 807.822 2349.94 803.694V887.161C2349.94 890.83 2349.02 893.582 2343.98 893.582H2326.55C2321.5 893.582 2318.75 892.664 2318.75 887.161V677.118H2319.21ZM2349.94 783.057C2360.49 789.477 2371.96 794.522 2384.8 794.522C2412.78 794.522 2436.64 767.923 2436.64 719.31C2436.64 677.577 2416.45 646.85 2380.67 646.85C2350.4 646.85 2350.4 665.194 2350.4 678.035V783.057H2349.94Z" fill="#F7941E"/>
<path d="M2499.48 677.118C2499.94 661.525 2499.94 656.022 2503.61 650.06C2510.95 639.054 2538.01 628.047 2567.83 628.047C2632.04 628.047 2648.56 676.659 2648.56 713.807C2648.56 757.375 2624.25 815.618 2567.83 815.618C2547.64 815.618 2537.09 807.822 2530.21 803.694V887.161C2530.21 890.83 2529.29 893.582 2524.25 893.582H2506.82C2501.77 893.582 2499.02 892.664 2499.02 887.161V677.118H2499.48ZM2530.21 783.057C2540.76 789.477 2552.23 794.522 2565.07 794.522C2593.05 794.522 2616.91 767.923 2616.91 719.31C2616.91 677.577 2596.72 646.85 2560.95 646.85C2530.67 646.85 2530.67 665.194 2530.67 678.035V783.057H2530.21Z" fill="#F7941E"/>
</svg>
